<svg width="45" height="45" viewBox="0 0 45 45" fill="none" xmlns="http://www.w3.org/2000/svg">
<path d="M38.904 22.5L40.974 18.9225C41.2228 18.4921 41.2905 17.9805 41.1621 17.5002C41.0338 17.0199 40.72 16.6102 40.2896 16.3613L36.7084 14.2913V10.1663C36.7084 9.669 36.5108 9.19209 36.1592 8.84046C35.8076 8.48882 35.3307 8.29128 34.8334 8.29128H30.7103L28.6421 4.71191C28.3924 4.28237 27.9835 3.96848 27.504 3.83816C27.2662 3.77369 27.0179 3.75706 26.7737 3.78925C26.5294 3.82143 26.2939 3.90179 26.0809 4.02566L22.4996 6.09566L18.9184 4.02378C18.4877 3.77515 17.976 3.70777 17.4956 3.83647C17.0153 3.96517 16.6058 4.27939 16.3571 4.71003L14.2871 8.29128H10.164C9.66673 8.29128 9.18982 8.48882 8.83819 8.84046C8.48656 9.19209 8.28901 9.669 8.28901 10.1663V14.2894L4.70776 16.3594C4.49407 16.4823 4.30678 16.6462 4.15663 16.8418C4.00649 17.0373 3.89646 17.2606 3.83287 17.4987C3.76927 17.7369 3.75337 17.9853 3.78606 18.2296C3.81876 18.474 3.89941 18.7095 4.02339 18.9225L6.09339 22.5L4.02339 26.0775C3.77587 26.5084 3.70871 27.0196 3.83656 27.4997C3.96441 27.9798 4.2769 28.39 4.70589 28.6406L8.28714 30.7106V34.8338C8.28714 35.3311 8.48468 35.808 8.83631 36.1596C9.18794 36.5112 9.66486 36.7088 10.1621 36.7088H14.2871L16.3571 40.29C16.5231 40.5738 16.7601 40.8094 17.0448 40.9738C17.3296 41.1382 17.6521 41.2256 17.9809 41.2275C18.3071 41.2275 18.6315 41.1413 18.9203 40.9744L22.4978 38.9044L26.079 40.9744C26.5096 41.2227 27.021 41.2901 27.5011 41.1618C27.9813 41.0335 28.3909 40.72 28.6403 40.29L30.7084 36.7088H34.8315C35.3288 36.7088 35.8057 36.5112 36.1573 36.1596C36.509 35.808 36.7065 35.3311 36.7065 34.8338V30.7106L40.2878 28.6406C40.5011 28.5174 40.688 28.3533 40.8379 28.1577C40.9877 27.9621 41.0976 27.739 41.1611 27.5009C41.2247 27.2629 41.2407 27.0146 41.2083 26.7704C41.1759 26.5262 41.0956 26.2907 40.9721 26.0775L38.904 22.5ZM17.8103 13.1063C18.5564 13.1065 19.2719 13.4032 19.7994 13.931C20.3268 14.4588 20.623 15.1745 20.6228 15.9207C20.6225 16.6668 20.3259 17.3823 19.7981 17.9098C19.2703 18.4372 18.5546 18.7334 17.8084 18.7332C17.0622 18.7329 16.3467 18.4363 15.8193 17.9085C15.2918 17.3807 14.9956 16.6649 14.9959 15.9188C14.9961 15.1726 15.2928 14.4571 15.8206 13.9297C16.3484 13.4022 17.0641 13.106 17.8103 13.1063ZM18.3728 31.1063L15.3728 28.8581L26.6228 13.8582L29.6228 16.1063L18.3728 31.1063ZM27.1853 31.8563C26.8158 31.8561 26.45 31.7833 26.1087 31.6418C25.7674 31.5003 25.4573 31.2929 25.1961 31.0316C24.935 30.7702 24.7278 30.46 24.5866 30.1186C24.4453 29.7772 24.3726 29.4114 24.3728 29.0419C24.3729 28.6724 24.4458 28.3066 24.5873 27.9653C24.7288 27.624 24.9361 27.3139 25.1975 27.0528C25.4588 26.7916 25.769 26.5845 26.1104 26.4432C26.4518 26.3019 26.8177 26.2293 27.1871 26.2294C27.9333 26.2297 28.6488 26.5263 29.1763 27.0541C29.7037 27.5819 29.9999 28.2976 29.9996 29.0438C29.9994 29.7899 29.7027 30.5055 29.1749 31.0329C28.6471 31.5603 27.9314 31.8565 27.1853 31.8563Z" fill="#313131"/>
</svg>
