<svg width="45" height="45" viewBox="0 0 45 45" fill="none" xmlns="http://www.w3.org/2000/svg">
<path d="M35.1562 16.875V4.21875H32.3438V7.03125H28.125V9.84375H32.3438V16.875H28.125V19.6875H39.375V16.875H35.1562ZM11.9531 7.03125C14.6672 7.03125 16.875 9.23906 16.875 11.9531C16.875 14.6672 14.6672 16.875 11.9531 16.875C9.23906 16.875 7.03125 14.6672 7.03125 11.9531C7.03125 9.23906 9.23906 7.03125 11.9531 7.03125ZM11.9531 4.21875C9.90184 4.21875 7.93457 5.03362 6.4841 6.4841C5.03362 7.93457 4.21875 9.90184 4.21875 11.9531C4.21875 14.0044 5.03362 15.9717 6.4841 17.4222C7.93457 18.8726 9.90184 19.6875 11.9531 19.6875C14.0044 19.6875 15.9717 18.8726 17.4222 17.4222C18.8726 15.9717 19.6875 14.0044 19.6875 11.9531C19.6875 9.90184 18.8726 7.93457 17.4222 6.4841C15.9717 5.03362 14.0044 4.21875 11.9531 4.21875ZM11.9531 28.125C14.6672 28.125 16.875 30.3328 16.875 33.0469C16.875 35.7609 14.6672 37.9688 11.9531 37.9688C9.23906 37.9688 7.03125 35.7609 7.03125 33.0469C7.03125 30.3328 9.23906 28.125 11.9531 28.125ZM11.9531 25.3125C10.9374 25.3125 9.93169 25.5126 8.99331 25.9012C8.05493 26.2899 7.2023 26.8596 6.4841 27.5778C5.76589 28.296 5.19618 29.1487 4.80749 30.0871C4.41881 31.0254 4.21875 32.0312 4.21875 33.0469C4.21875 34.0626 4.41881 35.0683 4.80749 36.0067C5.19618 36.9451 5.76589 37.7977 6.4841 38.5159C7.2023 39.2341 8.05493 39.8038 8.99331 40.1925C9.93169 40.5812 10.9374 40.7812 11.9531 40.7812C14.0044 40.7812 15.9717 39.9664 17.4222 38.5159C18.8726 37.0654 19.6875 35.0982 19.6875 33.0469C19.6875 30.9956 18.8726 29.0283 17.4222 27.5778C15.9717 26.1274 14.0044 25.3125 11.9531 25.3125ZM33.0469 28.125C35.7609 28.125 37.9688 30.3328 37.9688 33.0469C37.9688 35.7609 35.7609 37.9688 33.0469 37.9688C30.3328 37.9688 28.125 35.7609 28.125 33.0469C28.125 30.3328 30.3328 28.125 33.0469 28.125ZM33.0469 25.3125C32.0312 25.3125 31.0254 25.5126 30.0871 25.9012C29.1487 26.2899 28.296 26.8596 27.5778 27.5778C26.8596 28.296 26.2899 29.1487 25.9012 30.0871C25.5126 31.0254 25.3125 32.0312 25.3125 33.0469C25.3125 34.0626 25.5126 35.0683 25.9012 36.0067C26.2899 36.9451 26.8596 37.7977 27.5778 38.5159C28.296 39.2341 29.1487 39.8038 30.0871 40.1925C31.0254 40.5812 32.0312 40.7812 33.0469 40.7812C35.0982 40.7812 37.0654 39.9664 38.5159 38.5159C39.9664 37.0654 40.7812 35.0982 40.7812 33.0469C40.7812 30.9956 39.9664 29.0283 38.5159 27.5778C37.0654 26.1274 35.0982 25.3125 33.0469 25.3125Z" fill="#111111"/>
</svg>
