<svg width="37" height="36" viewBox="0 0 37 36" fill="none" xmlns="http://www.w3.org/2000/svg">
<g clip-path="url(#clip0_13_182)">
<path d="M32.9905 6H29.7405V8H32.7405V30H4.74049V8H7.74049V6H4.49049C4.25673 6.00391 4.02603 6.05383 3.81156 6.14691C3.59709 6.23999 3.40306 6.37441 3.24055 6.54249C3.07804 6.71057 2.95024 6.90902 2.86444 7.1265C2.77864 7.34398 2.73652 7.57624 2.74049 7.81V30.19C2.73652 30.4238 2.77864 30.656 2.86444 30.8735C2.95024 31.091 3.07804 31.2894 3.24055 31.4575C3.40306 31.6256 3.59709 31.76 3.81156 31.8531C4.02603 31.9462 4.25673 31.9961 4.49049 32H32.9905C33.2243 31.9961 33.455 31.9462 33.6694 31.8531C33.8839 31.76 34.0779 31.6256 34.2404 31.4575C34.4029 31.2894 34.5307 31.091 34.6165 30.8735C34.7023 30.656 34.7445 30.4238 34.7405 30.19V7.81C34.7445 7.57624 34.7023 7.34398 34.6165 7.1265C34.5307 6.90902 34.4029 6.71057 34.2404 6.54249C34.0779 6.37441 33.8839 6.23999 33.6694 6.14691C33.455 6.05383 33.2243 6.00391 32.9905 6Z" fill="black"/>
<path d="M8.74023 14H10.7402V16H8.74023V14Z" fill="black"/>
<path d="M14.7402 14H16.7402V16H14.7402V14Z" fill="black"/>
<path d="M20.7402 14H22.7402V16H20.7402V14Z" fill="black"/>
<path d="M26.7402 14H28.7402V16H26.7402V14Z" fill="black"/>
<path d="M8.74023 19H10.7402V21H8.74023V19Z" fill="black"/>
<path d="M14.7402 19H16.7402V21H14.7402V19Z" fill="black"/>
<path d="M20.7402 19H22.7402V21H20.7402V19Z" fill="black"/>
<path d="M26.7402 19H28.7402V21H26.7402V19Z" fill="black"/>
<path d="M8.74023 24H10.7402V26H8.74023V24Z" fill="black"/>
<path d="M14.7402 24H16.7402V26H14.7402V24Z" fill="black"/>
<path d="M20.7402 24H22.7402V26H20.7402V24Z" fill="black"/>
<path d="M26.7402 24H28.7402V26H26.7402V24Z" fill="black"/>
<path d="M10.7402 10C11.0055 10 11.2598 9.89464 11.4473 9.70711C11.6349 9.51957 11.7402 9.26522 11.7402 9V3C11.7402 2.73478 11.6349 2.48043 11.4473 2.29289C11.2598 2.10536 11.0055 2 10.7402 2C10.475 2 10.2207 2.10536 10.0331 2.29289C9.84559 2.48043 9.74023 2.73478 9.74023 3V9C9.74023 9.26522 9.84559 9.51957 10.0331 9.70711C10.2207 9.89464 10.475 10 10.7402 10Z" fill="black"/>
<path d="M26.7402 10C27.0055 10 27.2598 9.89464 27.4473 9.70711C27.6349 9.51957 27.7402 9.26522 27.7402 9V3C27.7402 2.73478 27.6349 2.48043 27.4473 2.29289C27.2598 2.10536 27.0055 2 26.7402 2C26.475 2 26.2207 2.10536 26.0331 2.29289C25.8456 2.48043 25.7402 2.73478 25.7402 3V9C25.7402 9.26522 25.8456 9.51957 26.0331 9.70711C26.2207 9.89464 26.475 10 26.7402 10Z" fill="black"/>
<path d="M13.7402 6H23.7402V8H13.7402V6Z" fill="black"/>
</g>
<defs>
<clipPath id="clip0_13_182">
<rect width="36" height="36" fill="white" transform="translate(0.740234)"/>
</clipPath>
</defs>
</svg>
