<svg width="33" height="32" viewBox="0 0 33 32" fill="none" xmlns="http://www.w3.org/2000/svg">
<path d="M9.16141 6.66667C9.24141 7.85333 9.44141 9.01333 9.76141 10.12L8.16141 11.72C7.61474 10.12 7.26807 8.42667 7.14807 6.66667H9.16141ZM22.3081 22.6933C23.4414 23.0133 24.6014 23.2133 25.7747 23.2933V25.28C24.0147 25.16 22.3214 24.8133 20.7081 24.28L22.3081 22.6933ZM10.4414 4H5.77474C5.04141 4 4.44141 4.6 4.44141 5.33333C4.44141 17.8533 14.5881 28 27.1081 28C27.8414 28 28.4414 27.4 28.4414 26.6667V22.0133C28.4414 21.28 27.8414 20.68 27.1081 20.68C25.4547 20.68 23.8414 20.4133 22.3481 19.92C22.2157 19.872 22.0755 19.8494 21.9347 19.8533C21.5881 19.8533 21.2547 19.9867 20.9881 20.24L18.0547 23.1733C14.2753 21.2405 11.2009 18.1661 9.26807 14.3867L12.2014 11.4533C12.5747 11.08 12.6814 10.56 12.5347 10.0933C12.0289 8.55741 11.7724 6.9504 11.7747 5.33333C11.7747 4.6 11.1747 4 10.4414 4Z" fill="black"/>
</svg>
