<svg width="45" height="45" viewBox="0 0 45 45" fill="none" xmlns="http://www.w3.org/2000/svg">
<mask id="mask0_18_257" style="mask-type:luminance" maskUnits="userSpaceOnUse" x="2" y="2" width="41" height="41">
<path d="M22.5 41.25C24.9628 41.2532 27.4019 40.7697 29.6771 39.8272C31.9524 38.8847 34.019 37.5019 35.7581 35.7581C37.5019 34.019 38.8847 31.9524 39.8272 29.6771C40.7697 27.4019 41.2532 24.9628 41.25 22.5C41.2532 20.0373 40.7696 17.5982 39.8271 15.3229C38.8846 13.0476 37.5018 10.9811 35.7581 9.24189C34.019 7.49817 31.9524 6.11533 29.6771 5.17285C27.4019 4.23036 24.9628 3.74682 22.5 3.75002C20.0373 3.74688 17.5982 4.23044 15.3229 5.17292C13.0476 6.1154 10.9811 7.49821 9.24189 9.24189C7.49821 10.9811 6.1154 13.0476 5.17292 15.3229C4.23044 17.5982 3.74688 20.0373 3.75002 22.5C3.74682 24.9628 4.23036 27.4019 5.17285 29.6771C6.11533 31.9524 7.49817 34.019 9.24189 35.7581C10.9811 37.5018 13.0476 38.8846 15.3229 39.8271C17.5982 40.7696 20.0373 41.2532 22.5 41.25Z" fill="white" stroke="white" stroke-width="2" stroke-linejoin="round"/>
<path d="M15 22.5L20.625 28.125L31.875 16.875" stroke="black" stroke-width="2" stroke-linecap="round" stroke-linejoin="round"/>
</mask>
<g mask="url(#mask0_18_257)">
<path d="M0 0H45V45H0V0Z" fill="#313131"/>
</g>
</svg>
