<svg width="33" height="32" viewBox="0 0 33 32" fill="none" xmlns="http://www.w3.org/2000/svg">
<path d="M26.7884 5.33325V13.3333H24.1217V9.89992L18.8217 15.1666C19.244 15.7888 19.5662 16.4501 19.7884 17.1506C20.0106 17.851 20.1217 18.5786 20.1217 19.3332C20.1217 21.3777 19.4106 23.111 17.9884 24.5332C16.5662 25.9555 14.8329 26.6666 12.7884 26.6666C10.744 26.6666 9.01063 25.9555 7.58841 24.5332C6.16619 23.111 5.45508 21.3777 5.45508 19.3332C5.45508 17.2888 6.16619 15.5555 7.58841 14.1333C9.01063 12.711 10.744 11.9999 12.7884 11.9999C13.5217 11.9999 14.244 12.1053 14.9551 12.3159C15.6662 12.5266 16.3217 12.8546 16.9217 13.2999L22.2217 7.99992H18.7884V5.33325H26.7884ZM12.7884 14.6666C11.4995 14.6666 10.3995 15.1221 9.48841 16.0332C8.5773 16.9444 8.12174 18.0444 8.12174 19.3332C8.12174 20.6221 8.5773 21.7221 9.48841 22.6332C10.3995 23.5444 11.4995 23.9999 12.7884 23.9999C14.0773 23.9999 15.1773 23.5444 16.0884 22.6332C16.9995 21.7221 17.4551 20.6221 17.4551 19.3332C17.4551 18.0444 16.9995 16.9444 16.0884 16.0332C15.1773 15.1221 14.0773 14.6666 12.7884 14.6666Z" fill="black"/>
</svg>
