<svg width="25" height="24" viewBox="0 0 25 24" fill="none" xmlns="http://www.w3.org/2000/svg">
<path d="M12.207 12C11.107 12 10.1654 11.6083 9.38203 10.825C8.5987 10.0417 8.20703 9.1 8.20703 8C8.20703 6.9 8.5987 5.95833 9.38203 5.175C10.1654 4.39167 11.107 4 12.207 4C13.307 4 14.2487 4.39167 15.032 5.175C15.8154 5.95833 16.207 6.9 16.207 8C16.207 9.1 15.8154 10.0417 15.032 10.825C14.2487 11.6083 13.307 12 12.207 12ZM4.20703 20V17.2C4.20703 16.6333 4.35303 16.1123 4.64503 15.637C4.93703 15.1617 5.32436 14.7993 5.80703 14.55C6.84036 14.0333 7.89036 13.6457 8.95703 13.387C10.0237 13.1283 11.107 12.9993 12.207 13C13.307 13 14.3904 13.1293 15.457 13.388C16.5237 13.6467 17.5737 14.034 18.607 14.55C19.0904 14.8 19.478 15.1627 19.77 15.638C20.062 16.1133 20.2077 16.634 20.207 17.2V20H4.20703ZM6.20703 18H18.207V17.2C18.207 17.0167 18.161 16.85 18.069 16.7C17.977 16.55 17.8564 16.4333 17.707 16.35C16.807 15.9 15.8987 15.5627 14.982 15.338C14.0654 15.1133 13.1404 15.0007 12.207 15C11.2737 15 10.3487 15.1127 9.43203 15.338C8.51537 15.5633 7.60703 15.9007 6.70703 16.35C6.55703 16.4333 6.43603 16.55 6.34403 16.7C6.25203 16.85 6.20636 17.0167 6.20703 17.2V18ZM12.207 10C12.757 10 13.228 9.804 13.62 9.412C14.012 9.02 14.2077 8.54933 14.207 8C14.207 7.45 14.011 6.979 13.619 6.587C13.227 6.195 12.7564 5.99933 12.207 6C11.657 6 11.186 6.196 10.794 6.588C10.402 6.98 10.2064 7.45067 10.207 8C10.207 8.55 10.403 9.021 10.795 9.413C11.187 9.805 11.6577 10.0007 12.207 10Z" fill="black"/>
</svg>
